<svg xmlns="http://www.w3.org/2000/svg" viewBox="0 0 480 320" width="480" height="320" role="img" aria-label="Suppliers list mockup">
  <rect width="480" height="320" fill="#faf7f2"/>
  <rect x="0.5" y="0.5" width="479" height="319" fill="none" stroke="#e8e1d4"/>

  <!-- Header -->
  <rect x="0" y="0" width="480" height="40" fill="#ffffff"/>
  <line x1="0" y1="40" x2="480" y2="40" stroke="#e8e1d4"/>
  <text x="20" y="25" font-family="Georgia, serif" font-size="13" fill="#1a1a1a">Suppliers</text>
  <text x="460" y="25" font-family="system-ui, sans-serif" font-size="10" fill="#8a8276" text-anchor="end">28 active</text>

  <!-- Table head -->
  <text x="20" y="68" font-family="system-ui, sans-serif" font-size="9" fill="#8a8276" letter-spacing="2">SUPPLIER</text>
  <text x="200" y="68" font-family="system-ui, sans-serif" font-size="9" fill="#8a8276" letter-spacing="2">LAST ORDER</text>
  <text x="290" y="68" font-family="system-ui, sans-serif" font-size="9" fill="#8a8276" letter-spacing="2">PERFORMANCE</text>
  <text x="450" y="68" font-family="system-ui, sans-serif" font-size="9" fill="#8a8276" letter-spacing="2" text-anchor="end">YTD SPEND</text>
  <line x1="20" y1="78" x2="460" y2="78" stroke="#f0e9da"/>

  <!-- Row 1 -->
  <g>
    <rect x="20" y="92" width="32" height="32" rx="6" fill="#f1e9d8"/>
    <text x="36" y="113" font-family="Georgia, serif" font-size="13" fill="#a8852c" text-anchor="middle">A</text>
    <text x="64" y="106" font-family="Georgia, serif" font-size="12" fill="#1a1a1a">Antwerp Stones Co.</text>
    <text x="64" y="120" font-family="system-ui, sans-serif" font-size="10" fill="#8a8276">Diamonds · BE · 30-day terms</text>
    <text x="200" y="111" font-family="system-ui, sans-serif" font-size="11" fill="#5a554c">12 Apr 2026</text>
    <!-- Performance bar -->
    <rect x="290" y="106" width="120" height="6" rx="3" fill="#f0e9da"/>
    <rect x="290" y="106" width="108" height="6" rx="3" fill="#c9a24a"/>
    <text x="290" y="124" font-family="system-ui, sans-serif" font-size="9" fill="#8a8276">90% on-time</text>
    <text x="450" y="111" font-family="Georgia, serif" font-size="12" fill="#1a1a1a" text-anchor="end">$184k</text>
  </g>
  <line x1="20" y1="138" x2="460" y2="138" stroke="#f0e9da"/>

  <!-- Row 2 -->
  <g>
    <rect x="20" y="152" width="32" height="32" rx="6" fill="#f1e9d8"/>
    <text x="36" y="173" font-family="Georgia, serif" font-size="13" fill="#a8852c" text-anchor="middle">M</text>
    <text x="64" y="166" font-family="Georgia, serif" font-size="12" fill="#1a1a1a">Milan Casting Workshop</text>
    <text x="64" y="180" font-family="system-ui, sans-serif" font-size="10" fill="#8a8276">Casting &amp; finishing · IT · 14-day terms</text>
    <text x="200" y="171" font-family="system-ui, sans-serif" font-size="11" fill="#5a554c">02 Apr 2026</text>
    <rect x="290" y="166" width="120" height="6" rx="3" fill="#f0e9da"/>
    <rect x="290" y="166" width="92" height="6" rx="3" fill="#c9a24a"/>
    <text x="290" y="184" font-family="system-ui, sans-serif" font-size="9" fill="#8a8276">77% on-time</text>
    <text x="450" y="171" font-family="Georgia, serif" font-size="12" fill="#1a1a1a" text-anchor="end">$96k</text>
  </g>
  <line x1="20" y1="198" x2="460" y2="198" stroke="#f0e9da"/>

  <!-- Row 3 -->
  <g>
    <rect x="20" y="212" width="32" height="32" rx="6" fill="#f1e9d8"/>
    <text x="36" y="233" font-family="Georgia, serif" font-size="13" fill="#a8852c" text-anchor="middle">B</text>
    <text x="64" y="226" font-family="Georgia, serif" font-size="12" fill="#1a1a1a">Bangkok Sapphire House</text>
    <text x="64" y="240" font-family="system-ui, sans-serif" font-size="10" fill="#8a8276">Coloured stones · TH · 60-day terms</text>
    <text x="200" y="231" font-family="system-ui, sans-serif" font-size="11" fill="#5a554c">21 Mar 2026</text>
    <rect x="290" y="226" width="120" height="6" rx="3" fill="#f0e9da"/>
    <rect x="290" y="226" width="64" height="6" rx="3" fill="#c9a24a"/>
    <text x="290" y="244" font-family="system-ui, sans-serif" font-size="9" fill="#8a8276">53% on-time</text>
    <text x="450" y="231" font-family="Georgia, serif" font-size="12" fill="#1a1a1a" text-anchor="end">$42k</text>
  </g>
  <line x1="20" y1="258" x2="460" y2="258" stroke="#f0e9da"/>

  <!-- Row 4 -->
  <g>
    <rect x="20" y="272" width="32" height="32" rx="6" fill="#f1e9d8"/>
    <text x="36" y="293" font-family="Georgia, serif" font-size="13" fill="#a8852c" text-anchor="middle">P</text>
    <text x="64" y="286" font-family="Georgia, serif" font-size="12" fill="#1a1a1a">Pforzheim Findings</text>
    <text x="64" y="300" font-family="system-ui, sans-serif" font-size="10" fill="#8a8276">Findings &amp; chains · DE · 30-day terms</text>
    <text x="200" y="291" font-family="system-ui, sans-serif" font-size="11" fill="#5a554c">08 Apr 2026</text>
    <rect x="290" y="286" width="120" height="6" rx="3" fill="#f0e9da"/>
    <rect x="290" y="286" width="118" height="6" rx="3" fill="#c9a24a"/>
    <text x="290" y="304" font-family="system-ui, sans-serif" font-size="9" fill="#8a8276">98% on-time</text>
    <text x="450" y="291" font-family="Georgia, serif" font-size="12" fill="#1a1a1a" text-anchor="end">$28k</text>
  </g>
</svg>
